<svg width="600" height="400" xmlns="http://www.w3.org/2000/svg">
  <!-- Background -->
  <rect width="600" height="400" fill="#f8f9fc" rx="10" ry="10"/>
  
  <!-- Plate -->
  <circle cx="300" cy="200" r="150" fill="#ffffff" stroke="#4e73df" stroke-width="5"/>
  <circle cx="300" cy="200" r="130" fill="none" stroke="#4e73df" stroke-width="2" stroke-dasharray="5,5"/>
  
  <!-- Food items -->
  <circle cx="250" cy="160" r="30" fill="#1cc88a"/>
  <circle cx="330" cy="180" r="25" fill="#f6c23e"/>
  <circle cx="280" cy="220" r="20" fill="#e74a3b"/>
  <circle cx="350" cy="230" r="15" fill="#36b9cc"/>
  
  <!-- Barcode -->
  <rect x="380" y="120" width="5" height="60" fill="#333"/>
  <rect x="390" y="120" width="2" height="60" fill="#333"/>
  <rect x="395" y="120" width="8" height="60" fill="#333"/>
  <rect x="410" y="120" width="3" height="60" fill="#333"/>
  <rect x="420" y="120" width="6" height="60" fill="#333"/>
  <rect x="430" y="120" width="1" height="60" fill="#333"/>
  <rect x="435" y="120" width="4" height="60" fill="#333"/>
  <rect x="445" y="120" width="7" height="60" fill="#333"/>
  <rect x="455" y="120" width="2" height="60" fill="#333"/>
  
  <!-- Magnifying glass with check -->
  <circle cx="200" cy="150" r="40" fill="none" stroke="#4e73df" stroke-width="8"/>
  <line x1="230" y1="180" x2="260" y2="210" stroke="#4e73df" stroke-width="8" stroke-linecap="round"/>
  <path d="M190 150 L210 170 L230 140" fill="none" stroke="#1cc88a" stroke-width="8" stroke-linecap="round" stroke-linejoin="round"/>
  
  <!-- Text "PlateMate" -->
  <text x="300" y="320" font-family="Arial, sans-serif" font-size="40" font-weight="bold" text-anchor="middle" fill="#4e73df">PlateMate</text>
  <text x="300" y="350" font-family="Arial, sans-serif" font-size="16" text-anchor="middle" fill="#5a5c69">Dietary Allergy Monitoring</text>
</svg> 